<?xml version="1.0" encoding="UTF-8"?>
<svg id="VECTOR_ARTWORK" xmlns="http://www.w3.org/2000/svg" version="1.1" viewBox="0 0 463.5 463.51">
  <!-- Generator: Adobe Illustrator 30.4.0, SVG Export Plug-In . SVG Version: 2.1.4 Build 226)  -->
  <defs>
    <style>
      .st0 {
        fill: #65cdf6;
      }
    </style>
  </defs>
  <path class="st0" d="M358.71,240.86c-10.07-17.91-17.62-41.75-17.62-56.56,0-24.13,14.37-40.27,14.37-40.27l-36.72-36.57s-2.54,2.58-7.11,5.81c-7.62,5.38-20.89,12.55-37.45,12.55-21.5,0-33.92-7.72-39.21-12.07-2.07-1.7-3.04-2.88-3.04-2.88,0,0-.11.13-.33.37-2.06,2.22-13.95,13.75-39.17,14.54-.9.03-1.82.04-2.75.04-26.5,0-44.57-18.36-44.57-18.36l-36.71,36.57s14.36,16.14,14.36,40.27c0,1.16-.05,2.38-.14,3.65-.09,1.14-.2,2.27-.33,3.38-.74,6.04-2.33,12.94-4.54,20.03-3.65,10.94-8.64,20.7-13.03,30.31-2.52,4.78-5.47,10.65-7.37,19.4-2.25,8.32-3.12,17.02-1.44,26.74.23,1.44.54,2.91.91,4.39,0,.02.01.05.02.07,0,0,0,.02,0,.03.19.74.4,1.49.63,2.24,10.12,34.94,41.92,41.72,70.86,45.2.47.06.94.11,1.41.17.2.02.4.05.6.07h0c2.9.34,5.93.66,9.12.97,15.55,1.56,28.67,4.01,45.17,16.31,2.36,1.76,4.78,3.71,7.29,5.9,20.08-17.47,34.69-20.43,52.46-22.21,18.02-1.76,31.14-3.83,41.86-7.33,7.34-2.39,13.55-5.46,19.44-9.55,14.51-10.07,22.8-28.87,22.8-42.64,0-22.06-5.62-32.72-9.77-40.57Z"/>
  <path class="st0" d="M231.75,31.88C121.36,31.88,31.87,121.37,31.87,231.76s89.49,199.87,199.88,199.87,199.87-89.49,199.87-199.87S342.13,31.88,231.75,31.88ZM231.75,409.87c-98.38,0-178.12-79.75-178.12-178.12S133.37,53.64,231.75,53.64s178.12,79.75,178.12,178.12-79.75,178.12-178.12,178.12Z"/>
</svg>